<svg width="210" height="71" viewBox="0 0 210 71" fill="none" xmlns="http://www.w3.org/2000/svg">
<path d="M4.14844 15V4.89844H0.375V3.54688H9.45312V4.89844H5.66406V15H4.14844ZM15.6094 12.3281L17.0625 12.5078C16.8333 13.3568 16.4089 14.0156 15.7891 14.4844C15.1693 14.9531 14.3776 15.1875 13.4141 15.1875C12.2005 15.1875 11.237 14.8151 10.5234 14.0703C9.8151 13.3203 9.46094 12.2708 9.46094 10.9219C9.46094 9.52604 9.82031 8.44271 10.5391 7.67188C11.2578 6.90104 12.1901 6.51562 13.3359 6.51562C14.4453 6.51562 15.3516 6.89323 16.0547 7.64844C16.7578 8.40365 17.1094 9.46615 17.1094 10.8359C17.1094 10.9193 17.1068 11.0443 17.1016 11.2109H10.9141C10.9661 12.1224 11.224 12.8203 11.6875 13.3047C12.151 13.7891 12.7292 14.0312 13.4219 14.0312C13.9375 14.0312 14.3776 13.8958 14.7422 13.625C15.1068 13.3542 15.3958 12.9219 15.6094 12.3281ZM10.9922 10.0547H15.625C15.5625 9.35677 15.3854 8.83333 15.0938 8.48438C14.6458 7.94271 14.0651 7.67188 13.3516 7.67188C12.7057 7.67188 12.1615 7.88802 11.7188 8.32031C11.2812 8.7526 11.0391 9.33073 10.9922 10.0547ZM18.9922 6.70312H25.5234V15H24.125V7.86719H20.3984V12C20.3984 12.9635 20.3672 13.599 20.3047 13.9062C20.2422 14.2135 20.0703 14.4818 19.7891 14.7109C19.5078 14.9401 19.1016 15.0547 18.5703 15.0547C18.2422 15.0547 17.8646 15.0339 17.4375 14.9922V13.8203H18.0547C18.3464 13.8203 18.5547 13.7917 18.6797 13.7344C18.8047 13.6719 18.888 13.5755 18.9297 13.4453C18.9714 13.3151 18.9922 12.8906 18.9922 12.1719V6.70312ZM28.0469 15V13.3984H29.6484V15H28.0469ZM38.3281 8.78906C37.7448 8.57552 37.3125 8.27083 37.0312 7.875C36.75 7.47917 36.6094 7.00521 36.6094 6.45312C36.6094 5.61979 36.9089 4.91927 37.5078 4.35156C38.1068 3.78385 38.9036 3.5 39.8984 3.5C40.8984 3.5 41.7031 3.79167 42.3125 4.375C42.9219 4.95312 43.2266 5.65885 43.2266 6.49219C43.2266 7.02344 43.0859 7.48698 42.8047 7.88281C42.5286 8.27344 42.1068 8.57552 41.5391 8.78906C42.2422 9.01823 42.776 9.38802 43.1406 9.89844C43.5104 10.4089 43.6953 11.0182 43.6953 11.7266C43.6953 12.7057 43.349 13.5286 42.6562 14.1953C41.9635 14.862 41.0521 15.1953 39.9219 15.1953C38.7917 15.1953 37.8802 14.862 37.1875 14.1953C36.4948 13.5234 36.1484 12.6875 36.1484 11.6875C36.1484 10.9427 36.3359 10.3203 36.7109 9.82031C37.0911 9.3151 37.6302 8.97135 38.3281 8.78906ZM38.0469 6.40625C38.0469 6.94792 38.2214 7.39062 38.5703 7.73438C38.9193 8.07812 39.3724 8.25 39.9297 8.25C40.4714 8.25 40.9141 8.08073 41.2578 7.74219C41.6068 7.39844 41.7812 6.97917 41.7812 6.48438C41.7812 5.96875 41.6016 5.53646 41.2422 5.1875C40.888 4.83333 40.4453 4.65625 39.9141 4.65625C39.3776 4.65625 38.9323 4.82812 38.5781 5.17188C38.224 5.51562 38.0469 5.92708 38.0469 6.40625ZM37.5938 11.6953C37.5938 12.0964 37.6875 12.4844 37.875 12.8594C38.0677 13.2344 38.3516 13.526 38.7266 13.7344C39.1016 13.9375 39.5052 14.0391 39.9375 14.0391C40.6094 14.0391 41.1641 13.8229 41.6016 13.3906C42.0391 12.9583 42.2578 12.4089 42.2578 11.7422C42.2578 11.0651 42.0312 10.5052 41.5781 10.0625C41.1302 9.61979 40.5677 9.39844 39.8906 9.39844C39.2292 9.39844 38.6797 9.61719 38.2422 10.0547C37.8099 10.4922 37.5938 11.0391 37.5938 11.6953ZM48.1484 18.3672C47.3724 17.388 46.7161 16.2422 46.1797 14.9297C45.6432 13.6172 45.375 12.2578 45.375 10.8516C45.375 9.61198 45.5755 8.42448 45.9766 7.28906C46.4453 5.97135 47.1693 4.65885 48.1484 3.35156H49.1562C48.526 4.4349 48.1094 5.20833 47.9062 5.67188C47.5885 6.39062 47.3385 7.14062 47.1562 7.92188C46.9323 8.89583 46.8203 9.875 46.8203 10.8594C46.8203 13.3646 47.599 15.8672 49.1562 18.3672H48.1484ZM54.9062 15V12.2578H49.9375V10.9688L55.1641 3.54688H56.3125V10.9688H57.8594V12.2578H56.3125V15H54.9062ZM54.9062 10.9688V5.80469L51.3203 10.9688H54.9062ZM59.5156 12.3516L60.8672 12.2266C60.9818 12.862 61.2005 13.3229 61.5234 13.6094C61.8464 13.8958 62.2604 14.0391 62.7656 14.0391C63.1979 14.0391 63.5755 13.9401 63.8984 13.7422C64.2266 13.5443 64.4948 13.2812 64.7031 12.9531C64.9115 12.6198 65.0859 12.1719 65.2266 11.6094C65.3672 11.0469 65.4375 10.474 65.4375 9.89062C65.4375 9.82812 65.4349 9.73438 65.4297 9.60938C65.1484 10.0573 64.763 10.4219 64.2734 10.7031C63.7891 10.9792 63.263 11.1172 62.6953 11.1172C61.7474 11.1172 60.9453 10.7734 60.2891 10.0859C59.6328 9.39844 59.3047 8.49219 59.3047 7.36719C59.3047 6.20573 59.6458 5.27083 60.3281 4.5625C61.0156 3.85417 61.875 3.5 62.9062 3.5C63.651 3.5 64.3307 3.70052 64.9453 4.10156C65.5651 4.5026 66.0339 5.07552 66.3516 5.82031C66.6745 6.5599 66.8359 7.63281 66.8359 9.03906C66.8359 10.5026 66.6771 11.6693 66.3594 12.5391C66.0417 13.4036 65.5677 14.0625 64.9375 14.5156C64.3125 14.9688 63.5781 15.1953 62.7344 15.1953C61.8385 15.1953 61.1068 14.9479 60.5391 14.4531C59.9714 13.9531 59.6302 13.2526 59.5156 12.3516ZM65.2734 7.29688C65.2734 6.48958 65.0573 5.84896 64.625 5.375C64.1979 4.90104 63.6823 4.66406 63.0781 4.66406C62.4531 4.66406 61.9089 4.91927 61.4453 5.42969C60.9818 5.9401 60.75 6.60156 60.75 7.41406C60.75 8.14323 60.9688 8.73698 61.4062 9.19531C61.849 9.64844 62.3932 9.875 63.0391 9.875C63.6901 9.875 64.224 9.64844 64.6406 9.19531C65.0625 8.73698 65.2734 8.10417 65.2734 7.29688ZM68.4219 12.3516L69.7734 12.2266C69.888 12.862 70.1068 13.3229 70.4297 13.6094C70.7526 13.8958 71.1667 14.0391 71.6719 14.0391C72.1042 14.0391 72.4818 13.9401 72.8047 13.7422C73.1328 13.5443 73.401 13.2812 73.6094 12.9531C73.8177 12.6198 73.9922 12.1719 74.1328 11.6094C74.2734 11.0469 74.3438 10.474 74.3438 9.89062C74.3438 9.82812 74.3411 9.73438 74.3359 9.60938C74.0547 10.0573 73.6693 10.4219 73.1797 10.7031C72.6953 10.9792 72.1693 11.1172 71.6016 11.1172C70.6536 11.1172 69.8516 10.7734 69.1953 10.0859C68.5391 9.39844 68.2109 8.49219 68.2109 7.36719C68.2109 6.20573 68.5521 5.27083 69.2344 4.5625C69.9219 3.85417 70.7812 3.5 71.8125 3.5C72.5573 3.5 73.237 3.70052 73.8516 4.10156C74.4714 4.5026 74.9401 5.07552 75.2578 5.82031C75.5807 6.5599 75.7422 7.63281 75.7422 9.03906C75.7422 10.5026 75.5833 11.6693 75.2656 12.5391C74.9479 13.4036 74.474 14.0625 73.8438 14.5156C73.2188 14.9688 72.4844 15.1953 71.6406 15.1953C70.7448 15.1953 70.013 14.9479 69.4453 14.4531C68.8776 13.9531 68.5365 13.2526 68.4219 12.3516ZM74.1797 7.29688C74.1797 6.48958 73.9635 5.84896 73.5312 5.375C73.1042 4.90104 72.5885 4.66406 71.9844 4.66406C71.3594 4.66406 70.8151 4.91927 70.3516 5.42969C69.888 5.9401 69.6562 6.60156 69.6562 7.41406C69.6562 8.14323 69.875 8.73698 70.3125 9.19531C70.7552 9.64844 71.2995 9.875 71.9453 9.875C72.5964 9.875 73.1302 9.64844 73.5469 9.19531C73.9688 8.73698 74.1797 8.10417 74.1797 7.29688ZM78.4297 18.3672H77.4219C78.9792 15.8672 79.7578 13.3646 79.7578 10.8594C79.7578 9.88021 79.6458 8.90885 79.4219 7.94531C79.2448 7.16406 78.9974 6.41406 78.6797 5.69531C78.4766 5.22656 78.0573 4.44531 77.4219 3.35156H78.4297C79.4089 4.65885 80.1328 5.97135 80.6016 7.28906C81.0026 8.42448 81.2031 9.61198 81.2031 10.8516C81.2031 12.2578 80.9323 13.6172 80.3906 14.9297C79.8542 16.2422 79.2005 17.388 78.4297 18.3672ZM81.8516 15L86.2812 9.03125L82.375 3.54688H84.1797L86.2578 6.48438C86.6901 7.09375 86.9974 7.5625 87.1797 7.89062C87.4349 7.47396 87.737 7.03906 88.0859 6.58594L90.3906 3.54688H92.0391L88.0156 8.94531L92.3516 15H90.4766L87.5938 10.9141C87.4323 10.6797 87.2656 10.4245 87.0938 10.1484C86.8385 10.5651 86.6562 10.8516 86.5469 11.0078L83.6719 15H81.8516ZM92.5234 15L96.9531 9.03125L93.0469 3.54688H94.8516L96.9297 6.48438C97.362 7.09375 97.6693 7.5625 97.8516 7.89062C98.1068 7.47396 98.4089 7.03906 98.7578 6.58594L101.062 3.54688H102.711L98.6875 8.94531L103.023 15H101.148L98.2656 10.9141C98.1042 10.6797 97.9375 10.4245 97.7656 10.1484C97.5104 10.5651 97.3281 10.8516 97.2188 11.0078L94.3438 15H92.5234ZM103.195 15L107.625 9.03125L103.719 3.54688H105.523L107.602 6.48438C108.034 7.09375 108.341 7.5625 108.523 7.89062C108.779 7.47396 109.081 7.03906 109.43 6.58594L111.734 3.54688H113.383L109.359 8.94531L113.695 15H111.82L108.938 10.9141C108.776 10.6797 108.609 10.4245 108.438 10.1484C108.182 10.5651 108 10.8516 107.891 11.0078L105.016 15H103.195ZM114.305 11.5625V10.1484H118.625V11.5625H114.305ZM119.195 15L123.625 9.03125L119.719 3.54688H121.523L123.602 6.48438C124.034 7.09375 124.341 7.5625 124.523 7.89062C124.779 7.47396 125.081 7.03906 125.43 6.58594L127.734 3.54688H129.383L125.359 8.94531L129.695 15H127.82L124.938 10.9141C124.776 10.6797 124.609 10.4245 124.438 10.1484C124.182 10.5651 124 10.8516 123.891 11.0078L121.016 15H119.195ZM129.867 15L134.297 9.03125L130.391 3.54688H132.195L134.273 6.48438C134.706 7.09375 135.013 7.5625 135.195 7.89062C135.451 7.47396 135.753 7.03906 136.102 6.58594L138.406 3.54688H140.055L136.031 8.94531L140.367 15H138.492L135.609 10.9141C135.448 10.6797 135.281 10.4245 135.109 10.1484C134.854 10.5651 134.672 10.8516 134.562 11.0078L131.688 15H129.867ZM140.977 11.5625V10.1484H145.297V11.5625H140.977ZM145.867 15L150.297 9.03125L146.391 3.54688H148.195L150.273 6.48438C150.706 7.09375 151.013 7.5625 151.195 7.89062C151.451 7.47396 151.753 7.03906 152.102 6.58594L154.406 3.54688H156.055L152.031 8.94531L156.367 15H154.492L151.609 10.9141C151.448 10.6797 151.281 10.4245 151.109 10.1484C150.854 10.5651 150.672 10.8516 150.562 11.0078L147.688 15H145.867ZM156.539 15L160.969 9.03125L157.062 3.54688H158.867L160.945 6.48438C161.378 7.09375 161.685 7.5625 161.867 7.89062C162.122 7.47396 162.424 7.03906 162.773 6.58594L165.078 3.54688H166.727L162.703 8.94531L167.039 15H165.164L162.281 10.9141C162.12 10.6797 161.953 10.4245 161.781 10.1484C161.526 10.5651 161.344 10.8516 161.234 11.0078L158.359 15H156.539Z" fill="#8D70E1"/>
<path d="M3.23438 41L0.195312 29.5469H1.75L3.49219 37.0547C3.67969 37.8411 3.84115 38.6224 3.97656 39.3984C4.26823 38.1745 4.4401 37.4688 4.49219 37.2812L6.67188 29.5469H8.5L10.1406 35.3438C10.5521 36.7812 10.849 38.1328 11.0312 39.3984C11.1771 38.6745 11.3672 37.8438 11.6016 36.9062L13.3984 29.5469H14.9219L11.7812 41H10.3203L7.90625 32.2734C7.70312 31.5443 7.58333 31.0964 7.54688 30.9297C7.42708 31.4557 7.3151 31.9036 7.21094 32.2734L4.78125 41H3.23438ZM16.1641 41V29.5469H17.5703V33.6562C18.2266 32.8958 19.0547 32.5156 20.0547 32.5156C20.6693 32.5156 21.2031 32.638 21.6562 32.8828C22.1094 33.1224 22.4323 33.4557 22.625 33.8828C22.8229 34.3099 22.9219 34.9297 22.9219 35.7422V41H21.5156V35.7422C21.5156 35.0391 21.362 34.5286 21.0547 34.2109C20.7526 33.888 20.3229 33.7266 19.7656 33.7266C19.349 33.7266 18.9557 33.8359 18.5859 34.0547C18.2214 34.2682 17.9609 34.5599 17.8047 34.9297C17.6484 35.2995 17.5703 35.8099 17.5703 36.4609V41H16.1641ZM30.4844 39.9766C29.9635 40.4193 29.4609 40.7318 28.9766 40.9141C28.4974 41.0964 27.9818 41.1875 27.4297 41.1875C26.5182 41.1875 25.8177 40.9661 25.3281 40.5234C24.8385 40.0755 24.5938 39.5052 24.5938 38.8125C24.5938 38.4062 24.6849 38.0365 24.8672 37.7031C25.0547 37.3646 25.2969 37.0938 25.5938 36.8906C25.8958 36.6875 26.2344 36.5339 26.6094 36.4297C26.8854 36.3568 27.3021 36.2865 27.8594 36.2188C28.9948 36.0833 29.8307 35.9219 30.3672 35.7344C30.3724 35.5417 30.375 35.4193 30.375 35.3672C30.375 34.7943 30.2422 34.3906 29.9766 34.1562C29.6172 33.8385 29.0833 33.6797 28.375 33.6797C27.7135 33.6797 27.224 33.7969 26.9062 34.0312C26.5938 34.2604 26.362 34.6693 26.2109 35.2578L24.8359 35.0703C24.9609 34.4818 25.1667 34.0078 25.4531 33.6484C25.7396 33.2839 26.1536 33.0052 26.6953 32.8125C27.237 32.6146 27.8646 32.5156 28.5781 32.5156C29.2865 32.5156 29.862 32.599 30.3047 32.7656C30.7474 32.9323 31.0729 33.1432 31.2812 33.3984C31.4896 33.6484 31.6354 33.9661 31.7188 34.3516C31.7656 34.5911 31.7891 35.0234 31.7891 35.6484V37.5234C31.7891 38.8307 31.8177 39.6589 31.875 40.0078C31.9375 40.3516 32.0573 40.6823 32.2344 41H30.7656C30.6198 40.7083 30.526 40.3672 30.4844 39.9766ZM30.3672 36.8359C29.8568 37.0443 29.0911 37.2214 28.0703 37.3672C27.4922 37.4505 27.0833 37.5443 26.8438 37.6484C26.6042 37.7526 26.4193 37.9062 26.2891 38.1094C26.1589 38.3073 26.0938 38.5286 26.0938 38.7734C26.0938 39.1484 26.2344 39.4609 26.5156 39.7109C26.8021 39.9609 27.2188 40.0859 27.7656 40.0859C28.3073 40.0859 28.7891 39.9688 29.2109 39.7344C29.6328 39.4948 29.9427 39.1693 30.1406 38.7578C30.2917 38.4401 30.3672 37.9714 30.3672 37.3516V36.8359ZM37.0469 39.7422L37.25 40.9844C36.8542 41.0677 36.5 41.1094 36.1875 41.1094C35.6771 41.1094 35.2812 41.0286 35 40.8672C34.7188 40.7057 34.5208 40.4948 34.4062 40.2344C34.2917 39.9688 34.2344 39.4141 34.2344 38.5703V33.7969H33.2031V32.7031H34.2344V30.6484L35.6328 29.8047V32.7031H37.0469V33.7969H35.6328V38.6484C35.6328 39.0495 35.6562 39.3073 35.7031 39.4219C35.7552 39.5365 35.8359 39.6276 35.9453 39.6953C36.0599 39.763 36.2214 39.7969 36.4297 39.7969C36.5859 39.7969 36.7917 39.7786 37.0469 39.7422ZM37.8672 38.5234L39.2578 38.3047C39.3359 38.862 39.5521 39.2891 39.9062 39.5859C40.2656 39.8828 40.7656 40.0312 41.4062 40.0312C42.0521 40.0312 42.5312 39.901 42.8438 39.6406C43.1562 39.375 43.3125 39.0651 43.3125 38.7109C43.3125 38.3932 43.1745 38.1432 42.8984 37.9609C42.7057 37.8359 42.2266 37.6771 41.4609 37.4844C40.4297 37.224 39.7135 37 39.3125 36.8125C38.9167 36.6198 38.6146 36.3568 38.4062 36.0234C38.2031 35.6849 38.1016 35.3125 38.1016 34.9062C38.1016 34.5365 38.1849 34.1953 38.3516 33.8828C38.5234 33.5651 38.7552 33.3021 39.0469 33.0938C39.2656 32.9323 39.5625 32.7969 39.9375 32.6875C40.3177 32.5729 40.724 32.5156 41.1562 32.5156C41.8073 32.5156 42.3776 32.6094 42.8672 32.7969C43.362 32.9844 43.7266 33.2396 43.9609 33.5625C44.1953 33.8802 44.3568 34.3073 44.4453 34.8438L43.0703 35.0312C43.0078 34.6042 42.8255 34.2708 42.5234 34.0312C42.2266 33.7917 41.8047 33.6719 41.2578 33.6719C40.612 33.6719 40.151 33.7786 39.875 33.9922C39.599 34.2057 39.4609 34.4557 39.4609 34.7422C39.4609 34.9245 39.5182 35.0885 39.6328 35.2344C39.7474 35.3854 39.9271 35.5104 40.1719 35.6094C40.3125 35.6615 40.7266 35.7812 41.4141 35.9688C42.4089 36.2344 43.1016 36.4531 43.4922 36.625C43.888 36.7917 44.1979 37.0365 44.4219 37.3594C44.6458 37.6823 44.7578 38.0833 44.7578 38.5625C44.7578 39.0312 44.6198 39.474 44.3438 39.8906C44.0729 40.3021 43.6797 40.6224 43.1641 40.8516C42.6484 41.0755 42.0651 41.1875 41.4141 41.1875C40.3359 41.1875 39.513 40.9635 38.9453 40.5156C38.3828 40.0677 38.0234 39.4036 37.8672 38.5234ZM45.3516 41L49.75 29.5469H51.3828L56.0703 41H54.3438L53.0078 37.5312H48.2188L46.9609 41H45.3516ZM48.6562 36.2969H52.5391L51.3438 33.125C50.9792 32.1615 50.7083 31.3698 50.5312 30.75C50.3854 31.4844 50.1797 32.2135 49.9141 32.9375L48.6562 36.2969ZM57.1016 44.1797V32.7031H58.3828V33.7812C58.6849 33.3594 59.026 33.0443 59.4062 32.8359C59.7865 32.6224 60.2474 32.5156 60.7891 32.5156C61.4974 32.5156 62.1224 32.6979 62.6641 33.0625C63.2057 33.4271 63.6146 33.9427 63.8906 34.6094C64.1667 35.2708 64.3047 35.9974 64.3047 36.7891C64.3047 37.638 64.151 38.4036 63.8438 39.0859C63.5417 39.763 63.099 40.2839 62.5156 40.6484C61.9375 41.0078 61.3281 41.1875 60.6875 41.1875C60.2188 41.1875 59.7969 41.0885 59.4219 40.8906C59.0521 40.6927 58.7474 40.4427 58.5078 40.1406V44.1797H57.1016ZM58.375 36.8984C58.375 37.9661 58.5911 38.7552 59.0234 39.2656C59.4557 39.776 59.9792 40.0312 60.5938 40.0312C61.2188 40.0312 61.7526 39.7682 62.1953 39.2422C62.6432 38.7109 62.8672 37.8906 62.8672 36.7812C62.8672 35.724 62.6484 34.9323 62.2109 34.4062C61.7786 33.8802 61.2604 33.6172 60.6562 33.6172C60.0573 33.6172 59.526 33.8984 59.0625 34.4609C58.6042 35.0182 58.375 35.8307 58.375 36.8984ZM66.0078 44.1797V32.7031H67.2891V33.7812C67.5911 33.3594 67.9323 33.0443 68.3125 32.8359C68.6927 32.6224 69.1536 32.5156 69.6953 32.5156C70.4036 32.5156 71.0286 32.6979 71.5703 33.0625C72.112 33.4271 72.5208 33.9427 72.7969 34.6094C73.0729 35.2708 73.2109 35.9974 73.2109 36.7891C73.2109 37.638 73.0573 38.4036 72.75 39.0859C72.4479 39.763 72.0052 40.2839 71.4219 40.6484C70.8438 41.0078 70.2344 41.1875 69.5938 41.1875C69.125 41.1875 68.7031 41.0885 68.3281 40.8906C67.9583 40.6927 67.6536 40.4427 67.4141 40.1406V44.1797H66.0078ZM67.2812 36.8984C67.2812 37.9661 67.4974 38.7552 67.9297 39.2656C68.362 39.776 68.8854 40.0312 69.5 40.0312C70.125 40.0312 70.6589 39.7682 71.1016 39.2422C71.5495 38.7109 71.7734 37.8906 71.7734 36.7812C71.7734 35.724 71.5547 34.9323 71.1172 34.4062C70.6849 33.8802 70.1667 33.6172 69.5625 33.6172C68.9635 33.6172 68.4323 33.8984 67.9688 34.4609C67.5104 35.0182 67.2812 35.8307 67.2812 36.8984ZM81.1406 34.7891C80.5573 34.5755 80.125 34.2708 79.8438 33.875C79.5625 33.4792 79.4219 33.0052 79.4219 32.4531C79.4219 31.6198 79.7214 30.9193 80.3203 30.3516C80.9193 29.7839 81.7161 29.5 82.7109 29.5C83.7109 29.5 84.5156 29.7917 85.125 30.375C85.7344 30.9531 86.0391 31.6589 86.0391 32.4922C86.0391 33.0234 85.8984 33.487 85.6172 33.8828C85.3411 34.2734 84.9193 34.5755 84.3516 34.7891C85.0547 35.0182 85.5885 35.388 85.9531 35.8984C86.3229 36.4089 86.5078 37.0182 86.5078 37.7266C86.5078 38.7057 86.1615 39.5286 85.4688 40.1953C84.776 40.862 83.8646 41.1953 82.7344 41.1953C81.6042 41.1953 80.6927 40.862 80 40.1953C79.3073 39.5234 78.9609 38.6875 78.9609 37.6875C78.9609 36.9427 79.1484 36.3203 79.5234 35.8203C79.9036 35.3151 80.4427 34.9714 81.1406 34.7891ZM80.8594 32.4062C80.8594 32.9479 81.0339 33.3906 81.3828 33.7344C81.7318 34.0781 82.1849 34.25 82.7422 34.25C83.2839 34.25 83.7266 34.0807 84.0703 33.7422C84.4193 33.3984 84.5938 32.9792 84.5938 32.4844C84.5938 31.9688 84.4141 31.5365 84.0547 31.1875C83.7005 30.8333 83.2578 30.6562 82.7266 30.6562C82.1901 30.6562 81.7448 30.8281 81.3906 31.1719C81.0365 31.5156 80.8594 31.9271 80.8594 32.4062ZM80.4062 37.6953C80.4062 38.0964 80.5 38.4844 80.6875 38.8594C80.8802 39.2344 81.1641 39.526 81.5391 39.7344C81.9141 39.9375 82.3177 40.0391 82.75 40.0391C83.4219 40.0391 83.9766 39.8229 84.4141 39.3906C84.8516 38.9583 85.0703 38.4089 85.0703 37.7422C85.0703 37.0651 84.8438 36.5052 84.3906 36.0625C83.9427 35.6198 83.3802 35.3984 82.7031 35.3984C82.0417 35.3984 81.4922 35.6172 81.0547 36.0547C80.6224 36.4922 80.4062 37.0391 80.4062 37.6953ZM90.9609 44.3672C90.1849 43.388 89.5286 42.2422 88.9922 40.9297C88.4557 39.6172 88.1875 38.2578 88.1875 36.8516C88.1875 35.612 88.388 34.4245 88.7891 33.2891C89.2578 31.9714 89.9818 30.6589 90.9609 29.3516H91.9688C91.3385 30.4349 90.9219 31.2083 90.7188 31.6719C90.401 32.3906 90.151 33.1406 89.9688 33.9219C89.7448 34.8958 89.6328 35.875 89.6328 36.8594C89.6328 39.3646 90.4115 41.8672 91.9688 44.3672H90.9609ZM93.4219 38.3516L94.7734 38.2266C94.888 38.862 95.1068 39.3229 95.4297 39.6094C95.7526 39.8958 96.1667 40.0391 96.6719 40.0391C97.1042 40.0391 97.4818 39.9401 97.8047 39.7422C98.1328 39.5443 98.401 39.2812 98.6094 38.9531C98.8177 38.6198 98.9922 38.1719 99.1328 37.6094C99.2734 37.0469 99.3438 36.474 99.3438 35.8906C99.3438 35.8281 99.3411 35.7344 99.3359 35.6094C99.0547 36.0573 98.6693 36.4219 98.1797 36.7031C97.6953 36.9792 97.1693 37.1172 96.6016 37.1172C95.6536 37.1172 94.8516 36.7734 94.1953 36.0859C93.5391 35.3984 93.2109 34.4922 93.2109 33.3672C93.2109 32.2057 93.5521 31.2708 94.2344 30.5625C94.9219 29.8542 95.7812 29.5 96.8125 29.5C97.5573 29.5 98.237 29.7005 98.8516 30.1016C99.4714 30.5026 99.9401 31.0755 100.258 31.8203C100.581 32.5599 100.742 33.6328 100.742 35.0391C100.742 36.5026 100.583 37.6693 100.266 38.5391C99.9479 39.4036 99.474 40.0625 98.8438 40.5156C98.2188 40.9688 97.4844 41.1953 96.6406 41.1953C95.7448 41.1953 95.013 40.9479 94.4453 40.4531C93.8776 39.9531 93.5365 39.2526 93.4219 38.3516ZM99.1797 33.2969C99.1797 32.4896 98.9635 31.849 98.5312 31.375C98.1042 30.901 97.5885 30.6641 96.9844 30.6641C96.3594 30.6641 95.8151 30.9193 95.3516 31.4297C94.888 31.9401 94.6562 32.6016 94.6562 33.4141C94.6562 34.1432 94.875 34.737 95.3125 35.1953C95.7552 35.6484 96.2995 35.875 96.9453 35.875C97.5964 35.875 98.1302 35.6484 98.5469 35.1953C98.9688 34.737 99.1797 34.1042 99.1797 33.2969ZM102.117 35.3516C102.117 33.9974 102.255 32.9089 102.531 32.0859C102.812 31.2578 103.227 30.6198 103.773 30.1719C104.326 29.724 105.018 29.5 105.852 29.5C106.466 29.5 107.005 29.625 107.469 29.875C107.932 30.1198 108.315 30.4766 108.617 30.9453C108.919 31.4089 109.156 31.9766 109.328 32.6484C109.5 33.3151 109.586 34.2161 109.586 35.3516C109.586 36.6953 109.448 37.7812 109.172 38.6094C108.896 39.4323 108.482 40.0703 107.93 40.5234C107.383 40.9714 106.69 41.1953 105.852 41.1953C104.747 41.1953 103.88 40.7995 103.25 40.0078C102.495 39.0547 102.117 37.5026 102.117 35.3516ZM103.562 35.3516C103.562 37.2318 103.781 38.4844 104.219 39.1094C104.661 39.7292 105.206 40.0391 105.852 40.0391C106.497 40.0391 107.039 39.7266 107.477 39.1016C107.919 38.4766 108.141 37.2266 108.141 35.3516C108.141 33.4661 107.919 32.2135 107.477 31.5938C107.039 30.974 106.492 30.6641 105.836 30.6641C105.19 30.6641 104.674 30.9375 104.289 31.4844C103.805 32.1823 103.562 33.4714 103.562 35.3516ZM111.023 38L112.5 37.875C112.609 38.5938 112.862 39.1354 113.258 39.5C113.659 39.8594 114.141 40.0391 114.703 40.0391C115.38 40.0391 115.953 39.7839 116.422 39.2734C116.891 38.763 117.125 38.0859 117.125 37.2422C117.125 36.4401 116.898 35.8073 116.445 35.3438C115.997 34.8802 115.409 34.6484 114.68 34.6484C114.227 34.6484 113.818 34.7526 113.453 34.9609C113.089 35.1641 112.802 35.4297 112.594 35.7578L111.273 35.5859L112.383 29.7031H118.078V31.0469H113.508L112.891 34.125C113.578 33.6458 114.299 33.4062 115.055 33.4062C116.055 33.4062 116.898 33.7526 117.586 34.4453C118.273 35.138 118.617 36.0286 118.617 37.1172C118.617 38.1536 118.315 39.0495 117.711 39.8047C116.977 40.7318 115.974 41.1953 114.703 41.1953C113.661 41.1953 112.81 40.9036 112.148 40.3203C111.492 39.737 111.117 38.9635 111.023 38ZM121.242 44.3672H120.234C121.792 41.8672 122.57 39.3646 122.57 36.8594C122.57 35.8802 122.458 34.9089 122.234 33.9453C122.057 33.1641 121.81 32.4141 121.492 31.6953C121.289 31.2266 120.87 30.4453 120.234 29.3516H121.242C122.221 30.6589 122.945 31.9714 123.414 33.2891C123.815 34.4245 124.016 35.612 124.016 36.8516C124.016 38.2578 123.745 39.6172 123.203 40.9297C122.667 42.2422 122.013 43.388 121.242 44.3672ZM124.664 41L129.094 35.0312L125.188 29.5469H126.992L129.07 32.4844C129.503 33.0938 129.81 33.5625 129.992 33.8906C130.247 33.474 130.549 33.0391 130.898 32.5859L133.203 29.5469H134.852L130.828 34.9453L135.164 41H133.289L130.406 36.9141C130.245 36.6797 130.078 36.4245 129.906 36.1484C129.651 36.5651 129.469 36.8516 129.359 37.0078L126.484 41H124.664ZM135.336 41L139.766 35.0312L135.859 29.5469H137.664L139.742 32.4844C140.174 33.0938 140.482 33.5625 140.664 33.8906C140.919 33.474 141.221 33.0391 141.57 32.5859L143.875 29.5469H145.523L141.5 34.9453L145.836 41H143.961L141.078 36.9141C140.917 36.6797 140.75 36.4245 140.578 36.1484C140.323 36.5651 140.141 36.8516 140.031 37.0078L137.156 41H135.336ZM146.008 41L150.438 35.0312L146.531 29.5469H148.336L150.414 32.4844C150.846 33.0938 151.154 33.5625 151.336 33.8906C151.591 33.474 151.893 33.0391 152.242 32.5859L154.547 29.5469H156.195L152.172 34.9453L156.508 41H154.633L151.75 36.9141C151.589 36.6797 151.422 36.4245 151.25 36.1484C150.995 36.5651 150.812 36.8516 150.703 37.0078L147.828 41H146.008ZM157.117 37.5625V36.1484H161.438V37.5625H157.117ZM162.008 41L166.438 35.0312L162.531 29.5469H164.336L166.414 32.4844C166.846 33.0938 167.154 33.5625 167.336 33.8906C167.591 33.474 167.893 33.0391 168.242 32.5859L170.547 29.5469H172.195L168.172 34.9453L172.508 41H170.633L167.75 36.9141C167.589 36.6797 167.422 36.4245 167.25 36.1484C166.995 36.5651 166.812 36.8516 166.703 37.0078L163.828 41H162.008ZM172.68 41L177.109 35.0312L173.203 29.5469H175.008L177.086 32.4844C177.518 33.0938 177.826 33.5625 178.008 33.8906C178.263 33.474 178.565 33.0391 178.914 32.5859L181.219 29.5469H182.867L178.844 34.9453L183.18 41H181.305L178.422 36.9141C178.26 36.6797 178.094 36.4245 177.922 36.1484C177.667 36.5651 177.484 36.8516 177.375 37.0078L174.5 41H172.68ZM183.789 37.5625V36.1484H188.109V37.5625H183.789ZM188.68 41L193.109 35.0312L189.203 29.5469H191.008L193.086 32.4844C193.518 33.0938 193.826 33.5625 194.008 33.8906C194.263 33.474 194.565 33.0391 194.914 32.5859L197.219 29.5469H198.867L194.844 34.9453L199.18 41H197.305L194.422 36.9141C194.26 36.6797 194.094 36.4245 193.922 36.1484C193.667 36.5651 193.484 36.8516 193.375 37.0078L190.5 41H188.68ZM199.352 41L203.781 35.0312L199.875 29.5469H201.68L203.758 32.4844C204.19 33.0938 204.497 33.5625 204.68 33.8906C204.935 33.474 205.237 33.0391 205.586 32.5859L207.891 29.5469H209.539L205.516 34.9453L209.852 41H207.977L205.094 36.9141C204.932 36.6797 204.766 36.4245 204.594 36.1484C204.339 36.5651 204.156 36.8516 204.047 37.0078L201.172 41H199.352Z" fill="#8D70E1"/>
<path d="M1.26562 67V55.5469H9.54688V56.8984H2.78125V60.4062H9.11719V61.75H2.78125V65.6484H9.8125V67H1.26562ZM11.1797 63.5625V62.1484H15.5V63.5625H11.1797ZM17.0547 67V58.7031H18.3125V59.8672C18.5729 59.4609 18.9193 59.1354 19.3516 58.8906C19.7839 58.6406 20.276 58.5156 20.8281 58.5156C21.4427 58.5156 21.9453 58.6432 22.3359 58.8984C22.7318 59.1536 23.0104 59.5104 23.1719 59.9688C23.8281 59 24.6823 58.5156 25.7344 58.5156C26.5573 58.5156 27.1901 58.7448 27.6328 59.2031C28.0755 59.6562 28.2969 60.3568 28.2969 61.3047V67H26.8984V61.7734C26.8984 61.2109 26.8516 60.8073 26.7578 60.5625C26.6693 60.3125 26.5052 60.112 26.2656 59.9609C26.026 59.8099 25.7448 59.7344 25.4219 59.7344C24.8385 59.7344 24.3542 59.9297 23.9688 60.3203C23.5833 60.7057 23.3906 61.3255 23.3906 62.1797V67H21.9844V61.6094C21.9844 60.9844 21.8698 60.5156 21.6406 60.2031C21.4115 59.8906 21.0365 59.7344 20.5156 59.7344C20.1198 59.7344 19.7526 59.8385 19.4141 60.0469C19.0807 60.2552 18.8385 60.5599 18.6875 60.9609C18.5365 61.362 18.4609 61.9401 18.4609 62.6953V67H17.0547ZM35.7969 65.9766C35.276 66.4193 34.7734 66.7318 34.2891 66.9141C33.8099 67.0964 33.2943 67.1875 32.7422 67.1875C31.8307 67.1875 31.1302 66.9661 30.6406 66.5234C30.151 66.0755 29.9062 65.5052 29.9062 64.8125C29.9062 64.4062 29.9974 64.0365 30.1797 63.7031C30.3672 63.3646 30.6094 63.0938 30.9062 62.8906C31.2083 62.6875 31.5469 62.5339 31.9219 62.4297C32.1979 62.3568 32.6146 62.2865 33.1719 62.2188C34.3073 62.0833 35.1432 61.9219 35.6797 61.7344C35.6849 61.5417 35.6875 61.4193 35.6875 61.3672C35.6875 60.7943 35.5547 60.3906 35.2891 60.1562C34.9297 59.8385 34.3958 59.6797 33.6875 59.6797C33.026 59.6797 32.5365 59.7969 32.2188 60.0312C31.9062 60.2604 31.6745 60.6693 31.5234 61.2578L30.1484 61.0703C30.2734 60.4818 30.4792 60.0078 30.7656 59.6484C31.0521 59.2839 31.4661 59.0052 32.0078 58.8125C32.5495 58.6146 33.1771 58.5156 33.8906 58.5156C34.599 58.5156 35.1745 58.599 35.6172 58.7656C36.0599 58.9323 36.3854 59.1432 36.5938 59.3984C36.8021 59.6484 36.9479 59.9661 37.0312 60.3516C37.0781 60.5911 37.1016 61.0234 37.1016 61.6484V63.5234C37.1016 64.8307 37.1302 65.6589 37.1875 66.0078C37.25 66.3516 37.3698 66.6823 37.5469 67H36.0781C35.9323 66.7083 35.8385 66.3672 35.7969 65.9766ZM35.6797 62.8359C35.1693 63.0443 34.4036 63.2214 33.3828 63.3672C32.8047 63.4505 32.3958 63.5443 32.1562 63.6484C31.9167 63.7526 31.7318 63.9062 31.6016 64.1094C31.4714 64.3073 31.4062 64.5286 31.4062 64.7734C31.4062 65.1484 31.5469 65.4609 31.8281 65.7109C32.1146 65.9609 32.5312 66.0859 33.0781 66.0859C33.6198 66.0859 34.1016 65.9688 34.5234 65.7344C34.9453 65.4948 35.2552 65.1693 35.4531 64.7578C35.6042 64.4401 35.6797 63.9714 35.6797 63.3516V62.8359ZM39.2969 57.1641V55.5469H40.7031V57.1641H39.2969ZM39.2969 67V58.7031H40.7031V67H39.2969ZM43.2422 60.3047V58.7031H44.8438V60.3047H43.2422ZM43.2422 67V65.3984H44.8438V67H43.2422ZM51.7578 67V58.7031H53.0156V59.8672C53.276 59.4609 53.6224 59.1354 54.0547 58.8906C54.487 58.6406 54.9792 58.5156 55.5312 58.5156C56.1458 58.5156 56.6484 58.6432 57.0391 58.8984C57.4349 59.1536 57.7135 59.5104 57.875 59.9688C58.5312 59 59.3854 58.5156 60.4375 58.5156C61.2604 58.5156 61.8932 58.7448 62.3359 59.2031C62.7786 59.6562 63 60.3568 63 61.3047V67H61.6016V61.7734C61.6016 61.2109 61.5547 60.8073 61.4609 60.5625C61.3724 60.3125 61.2083 60.112 60.9688 59.9609C60.7292 59.8099 60.4479 59.7344 60.125 59.7344C59.5417 59.7344 59.0573 59.9297 58.6719 60.3203C58.2865 60.7057 58.0938 61.3255 58.0938 62.1797V67H56.6875V61.6094C56.6875 60.9844 56.5729 60.5156 56.3438 60.2031C56.1146 59.8906 55.7396 59.7344 55.2188 59.7344C54.8229 59.7344 54.4557 59.8385 54.1172 60.0469C53.7839 60.2552 53.5417 60.5599 53.3906 60.9609C53.2396 61.362 53.1641 61.9401 53.1641 62.6953V67H51.7578ZM65.0234 70.1953L64.8672 68.875C65.1745 68.9583 65.4427 69 65.6719 69C65.9844 69 66.2344 68.9479 66.4219 68.8438C66.6094 68.7396 66.763 68.5938 66.8828 68.4062C66.9714 68.2656 67.1146 67.9167 67.3125 67.3594C67.3385 67.2812 67.3802 67.1667 67.4375 67.0156L64.2891 58.7031H65.8047L67.5312 63.5078C67.7552 64.1172 67.9557 64.7578 68.1328 65.4297C68.2943 64.7839 68.487 64.1536 68.7109 63.5391L70.4844 58.7031H71.8906L68.7344 67.1406C68.3958 68.0521 68.1328 68.6797 67.9453 69.0234C67.6953 69.487 67.4089 69.8255 67.0859 70.0391C66.763 70.2578 66.3776 70.3672 65.9297 70.3672C65.6589 70.3672 65.3568 70.3099 65.0234 70.1953ZM73.0859 70.1797V58.7031H74.3672V59.7812C74.6693 59.3594 75.0104 59.0443 75.3906 58.8359C75.7708 58.6224 76.2318 58.5156 76.7734 58.5156C77.4818 58.5156 78.1068 58.6979 78.6484 59.0625C79.1901 59.4271 79.599 59.9427 79.875 60.6094C80.151 61.2708 80.2891 61.9974 80.2891 62.7891C80.2891 63.638 80.1354 64.4036 79.8281 65.0859C79.526 65.763 79.0833 66.2839 78.5 66.6484C77.9219 67.0078 77.3125 67.1875 76.6719 67.1875C76.2031 67.1875 75.7812 67.0885 75.4062 66.8906C75.0365 66.6927 74.7318 66.4427 74.4922 66.1406V70.1797H73.0859ZM74.3594 62.8984C74.3594 63.9661 74.5755 64.7552 75.0078 65.2656C75.4401 65.776 75.9635 66.0312 76.5781 66.0312C77.2031 66.0312 77.737 65.7682 78.1797 65.2422C78.6276 64.7109 78.8516 63.8906 78.8516 62.7812C78.8516 61.724 78.6328 60.9323 78.1953 60.4062C77.763 59.8802 77.2448 59.6172 76.6406 59.6172C76.0417 59.6172 75.5104 59.8984 75.0469 60.4609C74.5885 61.0182 74.3594 61.8307 74.3594 62.8984ZM87.6719 64.3281L89.125 64.5078C88.8958 65.3568 88.4714 66.0156 87.8516 66.4844C87.2318 66.9531 86.4401 67.1875 85.4766 67.1875C84.263 67.1875 83.2995 66.8151 82.5859 66.0703C81.8776 65.3203 81.5234 64.2708 81.5234 62.9219C81.5234 61.526 81.8828 60.4427 82.6016 59.6719C83.3203 58.901 84.2526 58.5156 85.3984 58.5156C86.5078 58.5156 87.4141 58.8932 88.1172 59.6484C88.8203 60.4036 89.1719 61.4661 89.1719 62.8359C89.1719 62.9193 89.1693 63.0443 89.1641 63.2109H82.9766C83.0286 64.1224 83.2865 64.8203 83.75 65.3047C84.2135 65.7891 84.7917 66.0312 85.4844 66.0312C86 66.0312 86.4401 65.8958 86.8047 65.625C87.1693 65.3542 87.4583 64.9219 87.6719 64.3281ZM83.0547 62.0547H87.6875C87.625 61.3568 87.4479 60.8333 87.1562 60.4844C86.7083 59.9427 86.1276 59.6719 85.4141 59.6719C84.7682 59.6719 84.224 59.888 83.7812 60.3203C83.3438 60.7526 83.1016 61.3307 83.0547 62.0547ZM93.9688 65.7422L94.1719 66.9844C93.776 67.0677 93.4219 67.1094 93.1094 67.1094C92.599 67.1094 92.2031 67.0286 91.9219 66.8672C91.6406 66.7057 91.4427 66.4948 91.3281 66.2344C91.2135 65.9688 91.1562 65.4141 91.1562 64.5703V59.7969H90.125V58.7031H91.1562V56.6484L92.5547 55.8047V58.7031H93.9688V59.7969H92.5547V64.6484C92.5547 65.0495 92.5781 65.3073 92.625 65.4219C92.6771 65.5365 92.7578 65.6276 92.8672 65.6953C92.9818 65.763 93.1432 65.7969 93.3516 65.7969C93.5078 65.7969 93.7135 65.7786 93.9688 65.7422ZM103.367 65.7266C103.029 66.1172 102.648 66.4323 102.227 66.6719C101.81 66.9062 101.391 67.0234 100.969 67.0234C100.505 67.0234 100.055 66.888 99.6172 66.6172C99.1797 66.3464 98.8229 65.9297 98.5469 65.3672C98.276 64.8047 98.1406 64.1875 98.1406 63.5156C98.1406 62.6875 98.3516 61.8594 98.7734 61.0312C99.2005 60.1979 99.7292 59.5729 100.359 59.1562C100.99 58.7396 101.602 58.5312 102.195 58.5312C102.648 58.5312 103.081 58.651 103.492 58.8906C103.904 59.125 104.258 59.4844 104.555 59.9688L104.82 58.7578H106.219L105.094 64C104.938 64.7292 104.859 65.1328 104.859 65.2109C104.859 65.3516 104.911 65.474 105.016 65.5781C105.125 65.6771 105.255 65.7266 105.406 65.7266C105.682 65.7266 106.044 65.5677 106.492 65.25C107.086 64.8333 107.555 64.276 107.898 63.5781C108.247 62.875 108.422 62.151 108.422 61.4062C108.422 60.5365 108.198 59.724 107.75 58.9688C107.307 58.2135 106.643 57.6094 105.758 57.1562C104.878 56.7031 103.904 56.4766 102.836 56.4766C101.617 56.4766 100.503 56.763 99.4922 57.3359C98.487 57.9036 97.7057 58.7214 97.1484 59.7891C96.5964 60.8516 96.3203 61.9922 96.3203 63.2109C96.3203 64.487 96.5964 65.5859 97.1484 66.5078C97.7057 67.4297 98.5078 68.1094 99.5547 68.5469C100.607 68.9896 101.771 69.2109 103.047 69.2109C104.411 69.2109 105.555 68.9818 106.477 68.5234C107.398 68.0651 108.089 67.5078 108.547 66.8516H109.961C109.695 67.3984 109.24 67.9557 108.594 68.5234C107.948 69.0911 107.18 69.5391 106.289 69.8672C105.398 70.2005 104.326 70.3672 103.07 70.3672C101.914 70.3672 100.846 70.2188 99.8672 69.9219C98.8932 69.625 98.0625 69.1771 97.375 68.5781C96.6875 67.9844 96.1693 67.2995 95.8203 66.5234C95.3828 65.5391 95.1641 64.4766 95.1641 63.3359C95.1641 62.0651 95.4245 60.8542 95.9453 59.7031C96.5807 58.2917 97.4818 57.2109 98.6484 56.4609C99.8203 55.7109 101.24 55.3359 102.906 55.3359C104.198 55.3359 105.357 55.6016 106.383 56.1328C107.414 56.6589 108.227 57.4453 108.82 58.4922C109.326 59.3932 109.578 60.3724 109.578 61.4297C109.578 62.9401 109.047 64.2812 107.984 65.4531C107.036 66.5052 106 67.0312 104.875 67.0312C104.516 67.0312 104.224 66.9766 104 66.8672C103.781 66.7578 103.62 66.6016 103.516 66.3984C103.448 66.2682 103.398 66.0443 103.367 65.7266ZM99.5859 63.6094C99.5859 64.3229 99.7552 64.8776 100.094 65.2734C100.432 65.6693 100.82 65.8672 101.258 65.8672C101.549 65.8672 101.857 65.7812 102.18 65.6094C102.503 65.4323 102.81 65.1719 103.102 64.8281C103.398 64.4844 103.641 64.0495 103.828 63.5234C104.016 62.9922 104.109 62.4609 104.109 61.9297C104.109 61.2214 103.932 60.6719 103.578 60.2812C103.229 59.8906 102.802 59.6953 102.297 59.6953C101.964 59.6953 101.648 59.7812 101.352 59.9531C101.06 60.1198 100.776 60.3906 100.5 60.7656C100.224 61.1406 100.003 61.5964 99.8359 62.1328C99.6693 62.6693 99.5859 63.1615 99.5859 63.6094ZM111.602 67V58.7031H112.859V59.8672C113.12 59.4609 113.466 59.1354 113.898 58.8906C114.331 58.6406 114.823 58.5156 115.375 58.5156C115.99 58.5156 116.492 58.6432 116.883 58.8984C117.279 59.1536 117.557 59.5104 117.719 59.9688C118.375 59 119.229 58.5156 120.281 58.5156C121.104 58.5156 121.737 58.7448 122.18 59.2031C122.622 59.6562 122.844 60.3568 122.844 61.3047V67H121.445V61.7734C121.445 61.2109 121.398 60.8073 121.305 60.5625C121.216 60.3125 121.052 60.112 120.812 59.9609C120.573 59.8099 120.292 59.7344 119.969 59.7344C119.385 59.7344 118.901 59.9297 118.516 60.3203C118.13 60.7057 117.938 61.3255 117.938 62.1797V67H116.531V61.6094C116.531 60.9844 116.417 60.5156 116.188 60.2031C115.958 59.8906 115.583 59.7344 115.062 59.7344C114.667 59.7344 114.299 59.8385 113.961 60.0469C113.628 60.2552 113.385 60.5599 113.234 60.9609C113.083 61.362 113.008 61.9401 113.008 62.6953V67H111.602ZM130.344 65.9766C129.823 66.4193 129.32 66.7318 128.836 66.9141C128.357 67.0964 127.841 67.1875 127.289 67.1875C126.378 67.1875 125.677 66.9661 125.188 66.5234C124.698 66.0755 124.453 65.5052 124.453 64.8125C124.453 64.4062 124.544 64.0365 124.727 63.7031C124.914 63.3646 125.156 63.0938 125.453 62.8906C125.755 62.6875 126.094 62.5339 126.469 62.4297C126.745 62.3568 127.161 62.2865 127.719 62.2188C128.854 62.0833 129.69 61.9219 130.227 61.7344C130.232 61.5417 130.234 61.4193 130.234 61.3672C130.234 60.7943 130.102 60.3906 129.836 60.1562C129.477 59.8385 128.943 59.6797 128.234 59.6797C127.573 59.6797 127.083 59.7969 126.766 60.0312C126.453 60.2604 126.221 60.6693 126.07 61.2578L124.695 61.0703C124.82 60.4818 125.026 60.0078 125.312 59.6484C125.599 59.2839 126.013 59.0052 126.555 58.8125C127.096 58.6146 127.724 58.5156 128.438 58.5156C129.146 58.5156 129.721 58.599 130.164 58.7656C130.607 58.9323 130.932 59.1432 131.141 59.3984C131.349 59.6484 131.495 59.9661 131.578 60.3516C131.625 60.5911 131.648 61.0234 131.648 61.6484V63.5234C131.648 64.8307 131.677 65.6589 131.734 66.0078C131.797 66.3516 131.917 66.6823 132.094 67H130.625C130.479 66.7083 130.385 66.3672 130.344 65.9766ZM130.227 62.8359C129.716 63.0443 128.951 63.2214 127.93 63.3672C127.352 63.4505 126.943 63.5443 126.703 63.6484C126.464 63.7526 126.279 63.9062 126.148 64.1094C126.018 64.3073 125.953 64.5286 125.953 64.7734C125.953 65.1484 126.094 65.4609 126.375 65.7109C126.661 65.9609 127.078 66.0859 127.625 66.0859C128.167 66.0859 128.648 65.9688 129.07 65.7344C129.492 65.4948 129.802 65.1693 130 64.7578C130.151 64.4401 130.227 63.9714 130.227 63.3516V62.8359ZM133.844 57.1641V55.5469H135.25V57.1641H133.844ZM133.844 67V58.7031H135.25V67H133.844ZM137.367 67V55.5469H138.773V67H137.367ZM139.906 67.1953L143.227 55.3516H144.352L141.039 67.1953H139.906ZM145.398 67V58.7031H146.664V59.9609C146.987 59.3724 147.284 58.9844 147.555 58.7969C147.831 58.6094 148.133 58.5156 148.461 58.5156C148.935 58.5156 149.417 58.6667 149.906 58.9688L149.422 60.2734C149.078 60.0703 148.734 59.9688 148.391 59.9688C148.083 59.9688 147.807 60.0625 147.562 60.25C147.318 60.4323 147.143 60.6875 147.039 61.0156C146.883 61.5156 146.805 62.0625 146.805 62.6562V67H145.398ZM156.18 67V65.7812C155.534 66.7188 154.656 67.1875 153.547 67.1875C153.057 67.1875 152.599 67.0938 152.172 66.9062C151.75 66.7188 151.435 66.4844 151.227 66.2031C151.023 65.9167 150.88 65.5677 150.797 65.1562C150.74 64.8802 150.711 64.4427 150.711 63.8438V58.7031H152.117V63.3047C152.117 64.0391 152.146 64.5339 152.203 64.7891C152.292 65.1589 152.479 65.4505 152.766 65.6641C153.052 65.8724 153.406 65.9766 153.828 65.9766C154.25 65.9766 154.646 65.8698 155.016 65.6562C155.385 65.4375 155.646 65.1432 155.797 64.7734C155.953 64.3984 156.031 63.8568 156.031 63.1484V58.7031H157.438V67H156.18Z" fill="#8D70E1"/>
</svg>
