<svg width="104" height="70" viewBox="0 0 104 70" fill="none" xmlns="http://www.w3.org/2000/svg">
<g clip-path="url(#clip0_3012_176)">
<path d="M41.8471 49.6253L22.1478 53.8384L20.887 52.1116L30.8414 34.5518L32.1024 36.2789L23.3747 51.5887L40.5863 47.8983L41.8471 49.6253ZM47.1293 46.871L45.4334 47.1272L40.505 16.3067L42.2009 16.0506L47.1293 46.871ZM61.5941 35.1263L60.3333 33.3995L69.0103 18.0816L51.8494 21.7798L50.5884 20.053L70.2877 15.8398L71.5487 17.5667L61.5941 35.1263Z" fill="#F3B57C"/>
<mask id="mask0_3012_176" style="mask-type:luminance" maskUnits="userSpaceOnUse" x="8" y="-1" width="72" height="65">
<path d="M79.5526 -0.827148H8.19702V63.8696H79.5526V-0.827148Z" fill="white"/>
<path d="M41.8471 49.6253L22.1478 53.8384L20.887 52.1116L30.8414 34.5518L32.1024 36.2789L23.3747 51.5887L40.5863 47.8983L41.8471 49.6253ZM47.1293 46.871L45.4334 47.1272L40.505 16.3067L42.2009 16.0506L47.1293 46.871ZM61.5941 35.1263L60.3333 33.3995L69.0103 18.0816L51.8494 21.7798L50.5884 20.053L70.2877 15.8398L71.5487 17.5667L61.5941 35.1263Z" fill="black"/>
</mask>
<g mask="url(#mask0_3012_176)">
<path d="M41.8471 49.6253L42.1418 51.0112L44.277 50.5543L42.9871 48.7882L41.8471 49.6253ZM22.1478 53.8384L21.0077 54.6755L21.548 55.4155L22.4426 55.2242L22.1478 53.8384ZM20.887 52.1116L19.6586 51.4113L19.2065 52.2085L19.7469 52.9488L20.887 52.1116ZM30.8415 34.5518L31.9818 33.7146L30.692 31.9485L29.6132 33.8515L30.8415 34.5518ZM32.1025 36.2789L33.3293 36.982L33.7843 36.1836L33.2425 35.4417L32.1025 36.2789ZM23.3747 51.5887L22.1479 50.8856L20.5793 53.6372L23.6701 52.9746L23.3747 51.5887ZM40.5864 47.8983L41.7264 47.0614L41.1858 46.3209L40.2908 46.5127L40.5864 47.8983ZM41.5523 48.2395L21.8531 52.4525L22.4426 55.2242L42.1418 51.0112L41.5523 48.2395ZM23.2879 53.0012L22.0271 51.2744L19.7469 52.9488L21.0077 54.6755L23.2879 53.0012ZM22.1154 52.8119L32.07 35.2521L29.6132 33.8515L19.6586 51.4113L22.1154 52.8119ZM29.7014 35.389L30.9621 37.1157L33.2425 35.4417L31.9818 33.7146L29.7014 35.389ZM30.8757 35.5755L22.1479 50.8856L24.6014 52.2921L33.3293 36.982L30.8757 35.5755ZM23.6701 52.9746L40.8817 49.2841L40.2908 46.5127L23.0792 50.2032L23.6701 52.9746ZM39.446 48.7355L40.707 50.4622L42.9871 48.7882L41.7264 47.0614L39.446 48.7355ZM47.1293 46.871L47.3396 48.2721L48.7504 48.059L48.5246 46.6465L47.1293 46.871ZM45.4334 47.1272L44.0382 47.3513L44.2597 48.7372L45.6437 48.5283L45.4334 47.1272ZM40.505 16.3067L40.2947 14.9055L38.8839 15.1186L39.1097 16.5311L40.505 16.3067ZM42.2009 16.0506L43.5962 15.8262L43.3746 14.4403L41.9907 14.6494L42.2009 16.0506ZM46.9188 45.4698L45.2228 45.7257L45.6437 48.5283L47.3396 48.2721L46.9188 45.4698ZM46.8283 46.9027L41.9002 16.0824L39.1097 16.5311L44.0382 47.3513L46.8283 46.9027ZM40.7155 17.7079L42.4115 17.4518L41.9907 14.6494L40.2947 14.9055L40.7155 17.7079ZM40.806 16.2749L45.7341 47.0951L48.5246 46.6465L43.5962 15.8262L40.806 16.2749ZM61.5941 35.1263L60.454 35.9634L61.7436 37.7299L62.8226 35.8265L61.5941 35.1263ZM60.3334 33.3995L59.1046 32.6995L58.653 33.4967L59.193 34.2367L60.3334 33.3995ZM69.0103 18.0816L70.2391 18.7815L71.7965 16.0318L68.7136 16.6962L69.0103 18.0816ZM51.8495 21.7798L50.7091 22.617L51.2506 23.3583L52.1462 23.1652L51.8495 21.7798ZM50.5885 20.053L50.2937 18.6672L48.1589 19.1238L49.4484 20.8901L50.5885 20.053ZM70.2877 15.8398L71.428 15.0027L70.8877 14.2627L69.9932 14.454L70.2877 15.8398ZM71.5487 17.5667L72.7772 18.267L73.2291 17.4696L72.6887 16.7296L71.5487 17.5667ZM62.7341 34.2894L61.4734 32.5623L59.193 34.2367L60.454 35.9634L62.7341 34.2894ZM61.5619 34.0995L70.2391 18.7815L67.7818 17.3817L59.1046 32.6995L61.5619 34.0995ZM68.7136 16.6962L51.5524 20.3945L52.1462 23.1652L69.3073 19.467L68.7136 16.6962ZM52.9895 20.9428L51.7285 19.2159L49.4484 20.8901L50.7091 22.617L52.9895 20.9428ZM50.8832 21.4389L70.5825 17.2257L69.9932 14.454L50.2937 18.6672L50.8832 21.4389ZM69.1476 16.677L70.4087 18.4038L72.6887 16.7296L71.428 15.0027L69.1476 16.677ZM70.3202 16.8664L60.3656 34.426L62.8226 35.8265L72.7772 18.267L70.3202 16.8664Z" fill="#FF9900"/>
</g>
<path d="M54.2544 24.1716V37.3626H51.8522L46.1294 29.0604H46.033V37.3626H43.2518V24.1716H45.6927L51.3706 32.4674H51.4862V24.1716H54.2544ZM59.3142 37.5494C58.6845 37.5494 58.1238 37.44 57.6312 37.2209C57.1389 36.9976 56.7492 36.6691 56.4624 36.2355C56.1798 35.7974 56.0385 35.2521 56.0385 34.5994C56.0385 34.0499 56.1391 33.5883 56.3403 33.2147C56.5415 32.8409 56.8156 32.5405 57.1624 32.313C57.5092 32.0854 57.9031 31.9136 58.3443 31.7977C58.7897 31.6818 59.2562 31.6002 59.7443 31.5529C60.3183 31.4928 60.7806 31.437 61.1316 31.3854C61.4829 31.3296 61.7375 31.2479 61.8961 31.1405C62.0546 31.0334 62.1338 30.8744 62.1338 30.6641V30.6253C62.1338 30.2175 62.0052 29.9018 61.7483 29.6785C61.4956 29.4551 61.1362 29.3438 60.6693 29.3438C60.177 29.3438 59.785 29.4532 59.4939 29.6722C59.2028 29.8868 59.0101 30.1574 58.916 30.4836L56.3852 30.2776C56.5138 29.6765 56.7665 29.1567 57.1432 28.7189C57.5199 28.2766 58.006 27.9374 58.6012 27.7012C59.2006 27.4607 59.8944 27.3405 60.6823 27.3405C61.2303 27.3405 61.7548 27.4049 62.2559 27.5337C62.7612 27.6625 63.2085 27.8622 63.5982 28.1327C63.9922 28.4032 64.3025 28.7512 64.5294 29.1763C64.7564 29.5968 64.87 30.1016 64.87 30.6899V37.3626H62.2751V35.9906H62.1979C62.0397 36.2998 61.8277 36.5725 61.562 36.8085C61.2967 37.0406 60.9776 37.2232 60.6051 37.3561C60.2327 37.485 59.8022 37.5494 59.3142 37.5494ZM60.0976 35.6557C60.5003 35.6557 60.8555 35.5763 61.1639 35.4173C61.4722 35.2544 61.7141 35.0353 61.8896 34.7604C62.0654 34.4855 62.153 34.1743 62.153 33.8266V32.7766C62.0674 32.8324 61.9495 32.884 61.7997 32.9313C61.6542 32.9741 61.4894 33.0149 61.3052 33.0535C61.1212 33.0881 60.9369 33.1201 60.7529 33.1501C60.5687 33.1759 60.4017 33.1997 60.2519 33.221C59.9308 33.2683 59.6502 33.3434 59.4105 33.4466C59.1706 33.5494 58.9844 33.6892 58.8515 33.8651C58.719 34.0369 58.6526 34.2517 58.6526 34.5093C58.6526 34.8828 58.7874 35.1685 59.0573 35.366C59.3311 35.559 59.6782 35.6557 60.0976 35.6557ZM72.2401 27.4693V29.5305H66.2991V27.4693H72.2401ZM67.6477 25.099H70.384V34.3226C70.384 34.5759 70.4227 34.7734 70.4995 34.9151C70.5767 35.0523 70.6838 35.1489 70.8209 35.2048C70.9622 35.2606 71.1247 35.2887 71.3089 35.2887C71.4372 35.2887 71.5658 35.2779 71.6944 35.2564C71.8227 35.2306 71.9214 35.2113 71.9897 35.1985L72.4202 37.2402C72.2831 37.2832 72.0904 37.3325 71.8419 37.3884C71.5935 37.4485 71.2917 37.485 70.9365 37.4978C70.2769 37.5236 69.6989 37.4357 69.2021 37.2336C68.7098 37.0319 68.3266 36.7184 68.0524 36.2933C67.7783 35.8682 67.6435 35.3315 67.6477 34.683V25.099ZM76.8359 37.5494C76.2063 37.5494 75.6456 37.44 75.153 37.2209C74.6607 36.9976 74.271 36.6691 73.9841 36.2355C73.7015 35.7974 73.5602 35.2521 73.5602 34.5994C73.5602 34.0499 73.6608 33.5883 73.862 33.2147C74.0632 32.8409 74.3374 32.5405 74.6841 32.313C75.0309 32.0854 75.4249 31.9136 75.866 31.7977C76.3114 31.6818 76.778 31.6002 77.2661 31.5529C77.84 31.4928 78.3024 31.437 78.6534 31.3854C79.0047 31.3296 79.2593 31.2479 79.4178 31.1405C79.5764 31.0334 79.6555 30.8744 79.6555 30.6641V30.6253C79.6555 30.2175 79.5269 29.9018 79.27 29.6785C79.0174 29.4551 78.6579 29.3438 78.191 29.3438C77.6987 29.3438 77.3067 29.4532 77.0157 29.6722C76.7246 29.8868 76.5318 30.1574 76.4377 30.4836L73.907 30.2776C74.0355 29.6765 74.2882 29.1567 74.6649 28.7189C75.0416 28.2766 75.5277 27.9374 76.1229 27.7012C76.7223 27.4607 77.4161 27.3405 78.204 27.3405C78.752 27.3405 79.2765 27.4049 79.7776 27.5337C80.2829 27.6625 80.7303 27.8622 81.12 28.1327C81.5139 28.4032 81.8242 28.7512 82.0512 29.1763C82.2781 29.5968 82.3917 30.1016 82.3917 30.6899V37.3626H79.7968V35.9906H79.7197C79.5614 36.2998 79.3494 36.5725 79.0838 36.8085C78.8184 37.0406 78.4994 37.2232 78.1269 37.3561C77.7544 37.485 77.324 37.5494 76.8359 37.5494ZM77.6193 35.6557C78.022 35.6557 78.3773 35.5763 78.6856 35.4173C78.9939 35.2544 79.2358 35.0353 79.4113 34.7604C79.5871 34.4855 79.6747 34.1743 79.6747 33.8266V32.7766C79.5891 32.8324 79.4712 32.884 79.3215 32.9313C79.1759 32.9741 79.0112 33.0149 78.8269 33.0535C78.6429 33.0881 78.4587 33.1201 78.2747 33.1501C78.0904 33.1759 77.9234 33.1997 77.7736 33.221C77.4526 33.2683 77.1719 33.3434 76.9323 33.4466C76.6923 33.5494 76.5061 33.6892 76.3733 33.8651C76.2407 34.0369 76.1743 34.2517 76.1743 34.5093C76.1743 34.8828 76.3091 35.1685 76.579 35.366C76.8529 35.559 77.1999 35.6557 77.6193 35.6557ZM87.2506 24.1716V37.3626H84.5144V24.1716H87.2506ZM89.4425 37.3626V27.4693H92.1785V37.3626H89.4425ZM90.8168 26.194C90.4102 26.194 90.0612 26.0588 89.7701 25.7882C89.4832 25.5134 89.3397 25.1849 89.3397 24.8028C89.3397 24.4249 89.4832 24.1007 89.7701 23.8302C90.0612 23.5554 90.4102 23.418 90.8168 23.418C91.2238 23.418 91.5706 23.5554 91.8574 23.8302C92.1485 24.1007 92.2943 24.4249 92.2943 24.8028C92.2943 25.1849 92.1485 25.5134 91.8574 25.7882C91.5706 26.0588 91.2238 26.194 90.8168 26.194ZM97.1837 37.5494C96.5541 37.5494 95.9934 37.44 95.5008 37.2209C95.0085 36.9976 94.6188 36.6691 94.3319 36.2355C94.0493 35.7974 93.908 35.2521 93.908 34.5994C93.908 34.0499 94.0086 33.5883 94.2099 33.2147C94.4111 32.8409 94.6852 32.5405 95.032 32.313C95.3787 32.0854 95.7727 31.9136 96.2138 31.7977C96.6592 31.6818 97.1258 31.6002 97.6139 31.5529C98.1879 31.4928 98.6502 31.437 99.0012 31.3854C99.3525 31.3296 99.6071 31.2479 99.7657 31.1405C99.9242 31.0334 100.003 30.8744 100.003 30.6641V30.6253C100.003 30.2175 99.8747 29.9018 99.6178 29.6785C99.3652 29.4551 99.0057 29.3438 98.5388 29.3438C98.0465 29.3438 97.6546 29.4532 97.3635 29.6722C97.0724 29.8868 96.8797 30.1574 96.7855 30.4836L94.2548 30.2776C94.3834 29.6765 94.636 29.1567 95.0127 28.7189C95.3895 28.2766 95.8755 27.9374 96.4707 27.7012C97.0701 27.4607 97.7639 27.3405 98.5518 27.3405C99.0998 27.3405 99.6244 27.4049 100.125 27.5337C100.631 27.6625 101.078 27.8622 101.468 28.1327C101.862 28.4032 102.172 28.7512 102.399 29.1763C102.626 29.5968 102.74 30.1016 102.74 30.6899V37.3626H100.145V35.9906H100.067C99.9092 36.2998 99.6973 36.5725 99.4316 36.8085C99.1662 37.0406 98.8472 37.2232 98.4747 37.3561C98.1022 37.485 97.6718 37.5494 97.1837 37.5494ZM97.9671 35.6557C98.3699 35.6557 98.7251 35.5763 99.0334 35.4173C99.3417 35.2544 99.5837 35.0353 99.7592 34.7604C99.9349 34.4855 100.023 34.1743 100.023 33.8266V32.7766C99.9369 32.8324 99.8191 32.884 99.6693 32.9313C99.5237 32.9741 99.359 33.0149 99.1747 33.0535C98.9907 33.0881 98.8065 33.1201 98.6225 33.1501C98.4382 33.1759 98.2712 33.1997 98.1214 33.221C97.8004 33.2683 97.5198 33.3434 97.2801 33.4466C97.0402 33.5494 96.8539 33.6892 96.7211 33.8651C96.5886 34.0369 96.5222 34.2517 96.5222 34.5093C96.5222 34.8828 96.657 35.1685 96.9268 35.366C97.2007 35.559 97.5477 35.6557 97.9671 35.6557Z" fill="#00F2FE"/>
</g>
<defs>
<clipPath id="clip0_3012_176">
<rect width="104" height="70" fill="white"/>
</clipPath>
</defs>
</svg>
